<svg width="23" height="24" viewBox="0 0 23 24" fill="none" xmlns="http://www.w3.org/2000/svg">
<path fill-rule="evenodd" clip-rule="evenodd" d="M7.28428 0.893066H15.8379C19.774 0.893066 22.9659 4.10057 22.9659 8.05587V16.6512C22.9659 20.6065 19.774 23.814 15.8379 23.814H7.28428C3.34818 23.814 0.15625 20.6065 0.15625 16.6512V8.05587C0.15625 4.10057 3.34818 0.893066 7.28428 0.893066ZM15.8379 21.6652C18.5894 21.6652 20.8276 19.416 20.8276 16.6512V8.05586C20.8276 5.29102 18.5894 3.0419 15.8379 3.0419H7.28426C4.53283 3.0419 2.29462 5.29102 2.29462 8.05586V16.6512C2.29462 19.416 4.53283 21.6652 7.28426 21.6652H15.8379Z" fill="white"/>
<path fill-rule="evenodd" clip-rule="evenodd" d="M5.85889 12.3538C5.85889 9.18924 8.41215 6.62354 11.5613 6.62354C14.7105 6.62354 17.2637 9.18924 17.2637 12.3538C17.2637 15.5183 14.7105 18.084 11.5613 18.084C8.41215 18.084 5.85889 15.5183 5.85889 12.3538ZM7.99725 12.3538C7.99725 14.3278 9.59679 15.9352 11.5613 15.9352C13.5258 15.9352 15.1253 14.3278 15.1253 12.3538C15.1253 10.3783 13.5258 8.77237 11.5613 8.77237C9.59679 8.77237 7.99725 10.3783 7.99725 12.3538Z" fill="white"/>
<ellipse cx="17.691" cy="6.19374" rx="0.759857" ry="0.763565" fill="white"/>
</svg>
