<svg width="1440" height="2028" viewBox="0 0 1440 2028" fill="none" xmlns="http://www.w3.org/2000/svg">
<g clip-path="url(#clip0)">
<rect width="1440" height="2028" fill="white"/>
<rect width="1440" height="2028" fill="url(#paint0_linear)"/>
<g filter="url(#filter0_d)">
<path d="M1861.16 -66.1041C1867.75 311.601 1531.33 876.796 1153.62 883.389C1120.48 588.922 698.43 475.271 547.681 89.8431C410.884 -183.811 787.62 -731.47 1165.33 -738.063C1543.03 -744.655 1854.57 -443.809 1861.16 -66.1041Z" fill="#200E2F"/>
<path d="M1861.16 -66.1041C1867.75 311.601 1531.33 876.796 1153.62 883.389C1120.48 588.922 698.43 475.271 547.681 89.8431C410.884 -183.811 787.62 -731.47 1165.33 -738.063C1543.03 -744.655 1854.57 -443.809 1861.16 -66.1041Z" fill="url(#paint1_linear)"/>
<path d="M548.146 89.661L548.138 89.6398L548.128 89.6195C514 21.3479 511.881 -64.0593 533.847 -153.919C555.813 -243.774 601.852 -338.034 663.97 -423.965C788.223 -595.848 976.705 -734.27 1165.33 -737.563C1542.76 -744.151 1854.07 -443.525 1860.66 -66.0953C1863.95 122.628 1781.54 358.252 1651.09 547.526C1520.73 736.662 1342.51 879.367 1154.07 882.881C1137.29 735.665 1023.41 633.602 895.084 520.352L890.336 516.162C763.064 403.864 622.544 279.877 548.146 89.661Z" stroke="black"/>
</g>
</g>
<defs>
<filter id="filter0_d" x="503" y="-750" width="1378.51" height="1652.18" filterUnits="userSpaceOnUse" color-interpolation-filters="sRGB">
<feFlood flood-opacity="0" result="BackgroundImageFix"/>
<feColorMatrix in="SourceAlpha" type="matrix" values="0 0 0 0 0 0 0 0 0 0 0 0 0 0 0 0 0 0 127 0"/>
<feOffset dy="4"/>
<feGaussianBlur stdDeviation="2"/>
<feColorMatrix type="matrix" values="0 0 0 0 0 0 0 0 0 0 0 0 0 0 0 0 0 0 0.25 0"/>
<feBlend mode="normal" in2="BackgroundImageFix" result="effect1_dropShadow"/>
<feBlend mode="normal" in="SourceGraphic" in2="effect1_dropShadow" result="shape"/>
</filter>
<linearGradient id="paint0_linear" x1="1089.5" y1="-0.000112649" x2="-450.716" y2="470.254" gradientUnits="userSpaceOnUse">
<stop stop-color="#C7C7C7"/>
<stop offset="0.852865" stop-color="#7A5598"/>
</linearGradient>
<linearGradient id="paint1_linear" x1="1178.11" y1="-738.286" x2="1206.4" y2="882.468" gradientUnits="userSpaceOnUse">
<stop/>
<stop offset="0.546875" stop-color="#18005E"/>
<stop offset="1" stop-color="#734EDC" stop-opacity="0"/>
</linearGradient>
<clipPath id="clip0">
<rect width="1440" height="2028" fill="white"/>
</clipPath>
</defs>
</svg>
