<svg width="24" height="20" viewBox="0 0 24 20" fill="none" xmlns="http://www.w3.org/2000/svg">
<path d="M23.6838 3.18127C22.8355 3.55517 21.9317 3.803 20.9894 3.92334C21.9588 3.34172 22.6987 2.42774 23.0465 1.32611C22.1427 1.86761 21.1448 2.25011 20.0813 2.46356C19.223 1.54529 17.9999 0.976562 16.6655 0.976562C14.0766 0.976562 11.9924 3.08815 11.9924 5.67679C11.9924 6.04925 12.0237 6.40739 12.1007 6.74834C8.21306 6.55781 4.77307 4.68546 2.46215 1.83323C2.0587 2.53662 1.82205 3.34172 1.82205 4.20841C1.82205 5.8358 2.65604 7.27839 3.89917 8.11357C3.14787 8.09924 2.41083 7.88006 1.78641 7.53482C1.78641 7.54914 1.78641 7.56776 1.78641 7.58639C1.78641 9.86989 3.40733 11.7666 5.53292 12.2035C5.15228 12.3081 4.73743 12.3582 4.30689 12.3582C4.00751 12.3582 3.70528 12.341 3.42159 12.278C4.02747 14.1389 5.74676 15.507 7.79108 15.5514C6.2001 16.802 4.18001 17.5556 1.99313 17.5556C1.60964 17.5556 1.24183 17.5384 0.874023 17.4911C2.94543 18.8334 5.40033 19.5998 8.04769 19.5998C16.6527 19.5998 21.3572 12.437 21.3572 6.22832C21.3572 6.0206 21.3501 5.82004 21.3401 5.62092C22.2681 4.95907 23.048 4.13249 23.6838 3.18127Z" fill="white"/>
</svg>
