
<svg display="none" xmlns="http://www.w3.org/2000/svg">
    <symbol id="home-pg" viewBox="0 0 1440 2028">
        <g filter="url(#filter0_d)">
        <!-- <path d="M1861.16 -66.1041C1867.75 311.601 1531.33 876.796 1153.62 883.389C1120.48 588.922 698.43 475.271 547.681 89.8431C410.884 -183.811 787.62 -731.47 1165.33 -738.063C1543.03 -744.655 1854.57 -443.809 1861.16 -66.1041Z" fill="#200E2F"/> -->
        <!-- <path d="M1861.16 -66.1041C1867.75 311.601 1531.33 876.796 1153.62 883.389C1120.48 588.922 698.43 475.271 547.681 89.8431C410.884 -183.811 787.62 -731.47 1165.33 -738.063C1543.03 -744.655 1854.57 -443.809 1861.16 -66.1041Z" fill="url(#paint1_linear)"/> -->
        <path d="M548.146 89.661L548.138 89.6398L548.128 89.6195C514 21.3479 511.881 -64.0593 533.847 -153.919C555.813 -243.774 601.852 -338.034 663.97 -423.965C788.223 -595.848 976.705 -734.27 1165.33 -737.563C1542.76 -744.151 1854.07 -443.525 1860.66 -66.0953C1863.95 122.628 1781.54 358.252 1651.09 547.526C1520.73 736.662 1342.51 879.367 1154.07 882.881C1137.29 735.665 1023.41 633.602 895.084 520.352L890.336 516.162C763.064 403.864 622.544 279.877 548.146 89.661Z" stroke="black"/>
        </g>
    </symbol>
</svg>

<svg display="none" width="11" height="22" fill="none" xmlns="http://www.w3.org/2000/svg">
    <symbol id="facebook" viewBox="0 0 11 22">
    <path d="M8.48374 4.36808H10.3621V1.08065C10.038 1.03585 8.92353 0.935059 7.62559 0.935059C4.91742 0.935059 3.06224 2.64683 3.06224 5.79298V8.68843H0.0737305V12.3635H3.06224V21.6107H6.7263V12.3644H9.59393L10.0492 8.68929H6.72544V6.15739C6.7263 5.09517 7.01092 4.36808 8.48374 4.36808Z" fill="white"/>
    </symbol>
</svg>